<?xml version="1.0" encoding="iso-8859-1"?>
<!-- Generator: Adobe Illustrator 19.0.0, SVG Export Plug-In . SVG Version: 6.00 Build 0)  -->
<svg version="1.1" id="Layer_1" xmlns="http://www.w3.org/2000/svg" xmlns:xlink="http://www.w3.org/1999/xlink" x="0px" y="0px"
	 viewBox="0 0 512 512" style="enable-background:new 0 0 512 512;" xml:space="preserve">
<rect x="19.456" y="154.944" style="fill:#A5F2E5;" width="116.033" height="155.813"/>
<path style="fill:#62D9C7;" d="M169.75,19.456H19.728v116.03h291.033V19.456h-66.042c-5.374,0-9.728-4.355-9.728-9.728h-55.513
	C179.477,15.1,175.123,19.456,169.75,19.456z"/>
<path d="M320.489,154.941c5.374,0,9.728-4.355,9.728-9.728V9.728c0-5.372-4.354-9.728-9.728-9.728h-75.77
	c-5.374,0-9.728,4.355-9.728,9.728l0,0c0,5.372,4.354,9.728,9.728,9.728h66.042v116.03H19.728V19.456H169.75
	c5.374,0,9.728-4.355,9.728-9.728l0,0c0-5.372-4.354-9.728-9.728-9.728H10C7.244,0,4.761,1.15,2.992,2.992C1.15,4.761,0,7.244,0,10
	v310.487c0,5.372,4.354,9.728,9.728,9.728h135.486c5.374,0,9.728-4.355,9.728-9.728V154.941H320.489z M19.456,310.76V154.941h116.03
	V310.76H19.456L19.456,310.76z"/>
<rect x="376.517" y="201.235" style="fill:#A5F2E5;" width="116.033" height="155.813"/>
<path d="M502.272,181.785H366.786c-5.374,0-9.728,4.355-9.728,9.728v165.546H191.513c-5.374,0-9.728,4.355-9.728,9.728v135.486
	c0,5.372,4.354,9.728,9.728,9.728h75.769c5.374,0,9.728-4.355,9.728-9.728l0,0c0-5.372-4.354-9.728-9.728-9.728H201.24v-116.03
	h291.032v116.03h-150.02c-5.374,0-9.728,4.355-9.728,9.728l0,0c0,5.372,4.354,9.728,9.728,9.728H502c2.756,0,5.239-1.15,7.008-2.992
	c1.841-1.77,2.992-4.253,2.992-7.008V191.513C512,186.14,507.646,181.785,502.272,181.785z M492.544,201.24v155.818h-116.03V201.24
	H492.544z"/>
<path style="fill:#62D9C7;" d="M342.252,492.544h150.02v-116.03H201.24v116.03h66.041c5.374,0,9.728,4.355,9.728,9.728h55.514
	C332.524,496.9,336.878,492.544,342.252,492.544z"/>
<g>
</g>
<g>
</g>
<g>
</g>
<g>
</g>
<g>
</g>
<g>
</g>
<g>
</g>
<g>
</g>
<g>
</g>
<g>
</g>
<g>
</g>
<g>
</g>
<g>
</g>
<g>
</g>
<g>
</g>
</svg>
